PathFileType  4	(X/Y/Z) C:\Users\antoi\Documents\MyRepositories\mobilecap\ResultsAnalysis
DataRate	CameraRate	NumFrames	NumMarkers	Units	OrigDataRate	OrigDataStartFrame	OrigNumFrames
100.0	100.0	4	51	mm	100.0	70	279
Frame#	Time	r_knee			r_shank_antsup			r_ankle			r_calc			r_5meta			r_toe			L_knee			L_shank_antsup			L_ankle			L_calc			L_5meta			L_toe			r_sh2			r_sh3			r_sh4			L_sh2			L_sh3			r_thigh1			r_thigh2			r_thigh3			r_thigh4			r_thigh5			L_thigh1			L_thigh2			L_thigh3			L_thigh4			r.ASIS			r.PSIS			L.ASIS			L.PSIS			C7			R_Shoulder			L_Shoulder			R_Sternum			L_Sternum			R_humerus			R_elbow_med			R_elbow_lat			R_forearm			R_wrist_radius			R_wrist_ulna			L_humerus			L_elbow_med			L_elbow_lat			L_forearm			L_wrist_radius			L_wrist_ulna			R_HJC			L_HJC			R_HJC_reg			L_HJC_reg			
		X1	Y1	Z1	X2	Y2	Z2	X3	Y3	Z3	X4	Y4	Z4	X5	Y5	Z5	X6	Y6	Z6	X7	Y7	Z7	X8	Y8	Z8	X9	Y9	Z9	X10	Y10	Z10	X11	Y11	Z11	X12	Y12	Z12	X13	Y13	Z13	X14	Y14	Z14	X15	Y15	Z15	X16	Y16	Z16	X17	Y17	Z17	X18	Y18	Z18	X19	Y19	Z19	X20	Y20	Z20	X21	Y21	Z21	X22	Y22	Z22	X23	Y23	Z23	X24	Y24	Z24	X25	Y25	Z25	X26	Y26	Z26	X27	Y27	Z27	X28	Y28	Z28	X29	Y29	Z29	X30	Y30	Z30	X31	Y31	Z31	X32	Y32	Z32	X33	Y33	Z33	X34	Y34	Z34	X35	Y35	Z35	X36	Y36	Z36	X37	Y37	Z37	X38	Y38	Z38	X39	Y39	Z39	X40	Y40	Z40	X41	Y41	Z41	X42	Y42	Z42	X43	Y43	Z43	X44	Y44	Z44	X45	Y45	Z45	X46	Y46	Z46	X47	Y47	Z47	X48	Y48	Z48	X49	Y49	Z49	X50	Y50	Z50	X51	Y51	Z51	

70	0.69000000	-1109.13479	792.00024	-450.58401	-1100.30800	706.21301	-435.85916	-1303.57249	406.37737	-456.44173	-1368.44354	353.24446	-502.31336	-1166.38353	352.99576	-415.68950	-1132.50584	376.79300	-475.44188	-1101.55895	793.77850	-719.37808	-1105.97027	678.99229	-739.96042	-1291.65603	408.49340	-737.26622	-1365.35364	359.65221	-704.94158	-1123.21098	372.09918	-709.09447	-1145.49519	346.96287	-773.79805	-1153.10292	606.06834	-433.58126	-1164.86385	740.41984	-416.28388	-1226.20439	642.36053	-414.72004	-1182.07435	724.64731	-753.80604	-1231.93944	615.96581	-761.74038	-1186.33175	1092.42348	-391.90176	-1127.03911	1003.50912	-413.47877	-1158.39314	948.23962	-390.48293	-1280.24233	1029.56515	-393.46321	-1210.68980	934.39853	-403.73605	-1180.28826	1104.53951	-739.60129	-1105.66216	988.47914	-731.56484	-1281.58406	1040.99447	-741.85946	-1197.73882	928.69610	-746.64456	-1204.77483	1219.35429	-430.87146	-1361.65727	1334.60871	-510.20823	-1201.23415	1218.43206	-689.30717	-1361.89448	1331.25880	-615.61007	-1026.67725	1734.79205	-556.14556	-997.49251	1653.26193	-376.54363	-969.29814	1654.83819	-713.15366	-948.39381	1587.66874	-516.61575	-943.39807	1582.74451	-567.15769	-1206.23628	1485.24842	-282.03584	-1290.97739	1429.16343	-359.61334	-1287.20455	1439.01655	-271.26880	-1276.74973	1277.31006	-252.76644	-1270.93770	1160.94658	-262.92111	-1307.22980	1174.72432	-238.95160	-1138.80164	1484.71349	-846.24478	-1246.23460	1440.48656	-801.95513	-1217.89197	1438.67486	-868.86887	-1226.71861	1263.37418	-894.10303	-1219.71255	1164.88800	-887.52548	-1257.64101	1168.32598	-901.83410	-1313.04576	1181.88816	-438.57162	-1308.11472	1179.60215	-668.87540	-1301.34458	1185.27510	-466.16240	-1301.72468	1179.85605	-636.65995	
71	0.70000000	-1105.44672	789.70934	-451.36901	-1097.06841	704.14731	-435.83866	-1303.07279	406.28926	-456.30768	-1368.24942	353.29743	-502.22968	-1166.18390	352.34184	-415.19466	-1132.25607	375.94446	-475.10404	-1097.24678	791.93144	-719.44444	-1102.79749	677.44618	-740.32909	-1291.19697	408.66183	-737.36845	-1365.56585	359.72468	-704.29832	-1122.89801	371.41123	-709.14880	-1145.26312	346.10097	-773.76646	-1150.58827	604.89265	-433.83984	-1161.17336	738.92266	-416.33866	-1223.43553	641.51680	-414.80939	-1178.40750	723.92217	-754.06098	-1229.55940	615.73245	-761.77327	-1181.99440	1090.77226	-390.97830	-1123.05301	1001.12570	-412.49857	-1154.67687	946.89750	-388.20867	-1276.20131	1027.48290	-392.78689	-1206.76165	932.69301	-402.37221	-1176.94679	1102.46554	-739.35871	-1101.47660	986.67600	-731.32591	-1275.57668	1039.24796	-742.25144	-1193.43778	926.77982	-746.66341	-1200.66360	1217.31598	-429.96926	-1357.63058	1332.35398	-509.15466	-1197.61122	1216.17289	-688.18705	-1358.28074	1328.84253	-615.26386	-1024.07993	1732.82623	-553.75220	-995.32702	1649.42112	-375.01653	-966.29395	1652.28996	-710.01528	-945.13829	1586.05993	-514.76022	-940.15159	1581.27379	-565.04929	-1193.35334	1470.32164	-278.15400	-1278.07902	1410.35220	-354.06767	-1271.82660	1419.14177	-265.78780	-1251.92300	1257.93218	-250.96519	-1239.90621	1142.19352	-264.20190	-1276.41259	1153.26736	-238.32779	-1125.32829	1473.60320	-844.66261	-1231.98464	1422.73363	-802.03101	-1201.30974	1422.31850	-868.53492	-1201.66530	1246.18354	-891.38572	-1190.64161	1148.11517	-883.64002	-1228.36849	1149.83037	-898.82742	-1308.98847	1179.83837	-437.51630	-1304.29819	1177.14553	-667.82068	-1297.06959	1183.31679	-464.80306	-1298.11018	1177.68052	-635.14322	
72	0.71000000	-1101.40001	787.22099	-452.02736	-1093.52212	701.90196	-436.19626	-1302.52530	406.18102	-456.18620	-1368.09246	353.32731	-502.20161	-1165.95661	351.73975	-414.74104	-1131.96006	375.10849	-474.92524	-1092.54032	789.90385	-719.43070	-1099.26688	675.79355	-740.65546	-1290.72081	408.82408	-737.22289	-1365.33553	360.11535	-704.14243	-1122.48932	370.68502	-709.17954	-1144.96322	345.20850	-773.67543	-1147.84597	603.30955	-434.25813	-1157.41349	737.29226	-416.52126	-1220.17041	640.19854	-415.07858	-1174.40167	723.17367	-754.19270	-1226.90945	615.46631	-761.69373	-1176.96645	1089.06810	-390.13354	-1118.55001	998.57332	-411.42725	-1150.44133	944.76549	-387.01863	-1272.12574	1025.14124	-392.25736	-1202.70069	929.55127	-403.04964	-1172.27969	1100.96049	-738.34582	-1096.82092	984.86491	-731.08295	-1270.91122	1036.70012	-742.12901	-1188.87695	924.40333	-745.56859	-1196.12137	1215.34879	-428.92447	-1353.43434	1330.01999	-507.97625	-1193.09140	1213.86526	-687.18728	-1354.22480	1326.25256	-614.55821	-1021.97275	1731.55591	-551.50157	-993.54605	1646.69731	-373.58826	-963.34056	1650.73797	-707.05505	-942.25563	1585.09184	-512.92592	-937.21370	1580.51491	-562.85328	-1179.27199	1456.72224	-274.20177	-1264.62534	1391.85276	-348.24113	-1254.34400	1400.07315	-260.34095	-1223.90222	1240.11494	-249.25897	-1205.39020	1125.22226	-266.00823	-1241.54478	1133.66049	-237.62125	-1110.92609	1463.93469	-842.98792	-1215.75089	1405.80303	-801.80543	-1183.35753	1406.96615	-867.53862	-1173.91871	1230.67362	-888.30742	-1158.45403	1133.12579	-879.61543	-1195.61883	1133.09154	-895.70193	-1304.37410	1177.63843	-436.38787	-1299.76600	1174.62723	-666.69010	-1292.39348	1181.25054	-463.55612	-1293.65827	1175.22806	-633.91298	
73	0.72000000	-1096.92236	784.89755	-452.09185	-1089.60051	699.38540	-437.05594	-1301.88719	405.96898	-456.16755	-1367.94411	353.33068	-502.23112	-1165.78599	351.04184	-414.55031	-1131.56434	374.23124	-474.81253	-1087.36524	787.79923	-719.45435	-1095.35248	674.05210	-741.11965	-1290.09043	409.10648	-737.05890	-1364.55595	360.79888	-704.38765	-1121.97626	369.88427	-709.25798	-1144.60919	344.45437	-773.71060	-1144.92149	600.98924	-434.84424	-1153.22203	735.50550	-416.95628	-1216.55800	638.41148	-415.38610	-1169.95690	722.37124	-754.31404	-1223.81019	615.26608	-761.76555	-1172.00033	1086.45293	-389.34839	-1113.91842	995.84302	-410.87594	-1145.71032	941.19560	-388.05410	-1267.89876	1022.61798	-391.93575	-1198.53091	925.97106	-404.03195	-1165.82235	1099.91766	-735.70111	-1091.56082	983.20162	-730.68899	-1266.41094	1034.55647	-743.16457	-1183.59961	922.26266	-744.45961	-1191.21560	1213.29295	-427.77335	-1349.04665	1327.43370	-506.87833	-1187.71871	1211.69951	-686.16114	-1349.71504	1323.54979	-613.53381	-1020.45254	1730.84492	-549.29744	-992.15206	1645.15461	-372.06164	-960.47523	1650.19647	-704.37447	-939.80398	1584.69614	-511.05090	-934.59017	1580.59013	-560.32593	-1164.13899	1444.76299	-270.24740	-1249.01105	1374.15901	-342.22716	-1234.55483	1382.37233	-254.90018	-1192.70839	1224.71414	-247.63727	-1167.45624	1110.84586	-267.34640	-1202.39850	1116.75549	-237.00820	-1095.85845	1455.84825	-841.13790	-1197.67587	1390.22795	-801.19806	-1164.07028	1393.39159	-866.24153	-1143.50443	1217.61867	-885.07766	-1122.88965	1120.94024	-875.28061	-1159.29838	1118.88342	-892.43888	-1299.30640	1175.14553	-435.33396	-1294.44753	1172.13021	-665.63075	-1287.29871	1178.88029	-462.48912	-1288.36735	1172.67317	-632.92807	
